<svg width="24" height="25" viewBox="0 0 24 25" fill="none" xmlns="http://www.w3.org/2000/svg">
<path d="M7.12511 3.15381H2.62511C2.418 3.15381 2.25011 3.3217 2.25011 3.52881V8.02881C2.25011 8.23592 2.418 8.40381 2.62511 8.40381H7.12511C7.33221 8.40381 7.50011 8.23592 7.50011 8.02881V3.52881C7.50011 3.3217 7.33221 3.15381 7.12511 3.15381Z" fill="#37424D"/>
<path d="M14.25 3.15381H9.75003C9.54292 3.15381 9.37503 3.3217 9.37503 3.52881V8.02881C9.37503 8.23592 9.54292 8.40381 9.75003 8.40381H14.25C14.4571 8.40381 14.625 8.23592 14.625 8.02881V3.52881C14.625 3.3217 14.4571 3.15381 14.25 3.15381Z" fill="#37424D"/>
<path d="M21.3751 3.15381H16.8751C16.668 3.15381 16.5001 3.3217 16.5001 3.52881V8.02881C16.5001 8.23592 16.668 8.40381 16.8751 8.40381H21.3751C21.5822 8.40381 21.7501 8.23592 21.7501 8.02881V3.52881C21.7501 3.3217 21.5822 3.15381 21.3751 3.15381Z" fill="#37424D"/>
<path d="M7.12511 10.2798H2.62511C2.418 10.2798 2.25011 10.4477 2.25011 10.6548V15.1548C2.25011 15.3619 2.418 15.5298 2.62511 15.5298H7.12511C7.33221 15.5298 7.50011 15.3619 7.50011 15.1548V10.6548C7.50011 10.4477 7.33221 10.2798 7.12511 10.2798Z" fill="#37424D"/>
<path d="M14.25 10.2798H9.75003C9.54292 10.2798 9.37503 10.4477 9.37503 10.6548V15.1548C9.37503 15.3619 9.54292 15.5298 9.75003 15.5298H14.25C14.4571 15.5298 14.625 15.3619 14.625 15.1548V10.6548C14.625 10.4477 14.4571 10.2798 14.25 10.2798Z" fill="#37424D"/>
<path d="M21.3751 10.2798H16.8751C16.668 10.2798 16.5001 10.4477 16.5001 10.6548V15.1548C16.5001 15.3619 16.668 15.5298 16.8751 15.5298H21.3751C21.5822 15.5298 21.7501 15.3619 21.7501 15.1548V10.6548C21.7501 10.4477 21.5822 10.2798 21.3751 10.2798Z" fill="#37424D"/>
<path d="M7.12511 17.4053H2.62511C2.418 17.4053 2.25011 17.5732 2.25011 17.7803V22.2803C2.25011 22.4874 2.418 22.6553 2.62511 22.6553H7.12511C7.33221 22.6553 7.50011 22.4874 7.50011 22.2803V17.7803C7.50011 17.5732 7.33221 17.4053 7.12511 17.4053Z" fill="#37424D"/>
<path d="M14.25 17.4053H9.75003C9.54292 17.4053 9.37503 17.5732 9.37503 17.7803V22.2803C9.37503 22.4874 9.54292 22.6553 9.75003 22.6553H14.25C14.4571 22.6553 14.625 22.4874 14.625 22.2803V17.7803C14.625 17.5732 14.4571 17.4053 14.25 17.4053Z" fill="#37424D"/>
<path d="M21.3751 17.4053H16.8751C16.668 17.4053 16.5001 17.5732 16.5001 17.7803V22.2803C16.5001 22.4874 16.668 22.6553 16.8751 22.6553H21.3751C21.5822 22.6553 21.7501 22.4874 21.7501 22.2803V17.7803C21.7501 17.5732 21.5822 17.4053 21.3751 17.4053Z" fill="#37424D"/>
</svg>
